<svg width="98" height="19" viewBox="0 0 98 19" fill="none" xmlns="http://www.w3.org/2000/svg">
<path d="M15.0276 17.5721V4.88855H11V1.43066H22.5604V4.89351H18.549V17.582H15.0276V17.5721Z" fill="white"/>
<path d="M19.9766 17.5722V14.668H22.9401V17.5722H19.9766Z" fill="white"/>
<path d="M42.4603 1.43066V17.5721H38.9268V1.43066H42.4603Z" fill="white"/>
<path d="M59.4435 12.2953C59.0903 13.3407 58.5321 14.3084 57.8003 15.144C57.0852 15.964 56.2017 16.6271 55.2074 17.0898C54.2174 17.5666 53.1282 17.8121 52.0252 17.8071C50.6289 17.8124 49.2605 17.4246 48.0826 16.6899C46.8671 15.9424 45.8717 14.8969 45.1951 13.6567C44.471 12.389 44.0979 10.9579 44.1127 9.50523C44.1028 8.05627 44.4664 6.62832 45.1698 5.35378C45.8456 4.10788 46.8438 3.05807 48.0644 2.30965C49.2526 1.57601 50.63 1.19044 52.0343 1.19836C53.13 1.1932 54.2123 1.43527 55.1972 1.90581C56.2013 2.37733 57.0941 3.04879 57.8185 3.87736C58.562 4.71974 59.1215 5.70237 59.4628 6.76472H55.6073C55.2041 6.14449 54.6653 5.61985 54.0299 5.22876C53.4001 4.84238 52.6687 4.6453 51.9259 4.66188C51.1831 4.67845 50.4615 4.90796 49.8504 5.32203C49.1751 5.76797 48.629 6.37739 48.2649 7.09116C47.8676 7.83779 47.6652 8.6692 47.6756 9.51118C47.671 10.3465 47.8732 11.1704 48.2649 11.9124C48.6354 12.6265 49.1843 13.2372 49.8605 13.6874C50.4654 14.1004 51.1796 14.3324 51.9164 14.3555C52.6532 14.3786 53.3811 14.1916 54.0116 13.8174C54.6455 13.4398 55.1825 12.9244 55.581 12.3112H59.4466L59.4435 12.2953Z" fill="white"/>
<path d="M75.2513 17.5721H70.7964L64.4482 9.50138L70.7954 1.43066H75.2503L68.894 9.50138L75.2513 17.5721Z" fill="white"/>
<path d="M64.4502 1.43066H60.8975V17.5721H64.4502V1.43066Z" fill="white"/>
<path d="M84.4739 8.92491C85.2243 9.35619 85.8593 9.95611 86.3267 10.6752C86.7654 11.3515 86.9993 12.136 87.001 12.9374C86.9995 13.8017 86.7243 14.6442 86.2133 15.3485C85.6625 16.1152 84.9199 16.7302 84.0567 17.1345C83.1344 17.5778 82.1205 17.8073 81.0932 17.8053C80.1501 17.8126 79.2156 17.6288 78.3484 17.2655C77.4786 16.8934 76.7321 16.2906 76.1929 15.5252C75.5172 14.548 75.1868 13.3808 75.2523 12.2022H78.9984C78.9793 12.4976 79.0255 12.7936 79.1336 13.0699C79.2418 13.3463 79.4094 13.5965 79.6251 13.8037C80.0197 14.1766 80.5491 14.3811 81.0973 14.3722C81.6072 14.3861 82.1077 14.2355 82.5218 13.9436C82.6986 13.8376 82.8457 13.6903 82.9502 13.5148C83.0546 13.3394 83.113 13.1414 83.1202 12.9384C83.1075 12.7048 83.0312 12.4787 82.8993 12.2836C82.7674 12.0886 82.5846 11.9317 82.3699 11.8291L78.1287 9.36149C77.4417 8.96348 76.8616 8.41034 76.4369 7.74814C76.0383 7.13296 75.8276 6.41896 75.8294 5.69027C75.8264 4.8813 76.0785 4.09118 76.5513 3.42801C77.0525 2.71972 77.738 2.15581 78.5367 1.79482C79.3809 1.39625 80.3071 1.19259 81.2441 1.19949C82.2546 1.16854 83.2551 1.40322 84.1418 1.87916C84.9167 2.30958 85.5466 2.95238 85.9541 3.72866C86.3473 4.48673 86.5493 5.32611 86.5433 6.17646H82.9896C82.9951 5.97077 82.9555 5.76631 82.8736 5.57684C82.7917 5.38738 82.6693 5.21731 82.5147 5.07807C82.1636 4.77823 81.707 4.62444 81.2421 4.64944C80.8616 4.63834 80.4869 4.74227 80.1688 4.9471C80.0376 5.02248 79.9284 5.12973 79.8518 5.25852C79.7752 5.38731 79.7337 5.53328 79.7314 5.68234C79.7384 5.84434 79.7908 6.00132 79.883 6.13597C79.9752 6.27061 80.1035 6.37768 80.2539 6.44535L84.4739 8.92491Z" fill="white"/>
<path d="M28.2907 11.5116H27.8918V17.5711H24.3613V1.43954H30.2984C30.9658 1.43544 31.6265 1.57074 32.2363 1.83643C32.8679 2.11649 33.4396 2.51143 33.9211 3.00031C34.3924 3.48859 34.7633 4.06128 35.0135 4.68708C35.2665 5.2929 35.3988 5.94056 35.4033 6.59512C35.408 7.51436 35.1441 8.41571 34.643 9.19275C34.0465 9.98413 33.2415 10.6015 32.3143 10.9787L37.5103 17.5691H33.0686L28.2907 11.5116ZM30.3045 8.02987C30.506 8.03663 30.7069 8.00441 30.8957 7.93506C31.0845 7.86571 31.2576 7.76058 31.4049 7.62569C31.5522 7.49079 31.671 7.32877 31.7544 7.14887C31.8378 6.96898 31.8843 6.77474 31.8911 6.57726C31.8911 6.53757 31.8911 6.49689 31.8911 6.45621C31.8998 6.25923 31.8687 6.06251 31.7998 5.87729C31.7309 5.69206 31.6253 5.52197 31.4893 5.37674C31.3532 5.23151 31.1893 5.11399 31.0068 5.03089C30.8244 4.9478 30.627 4.90076 30.426 4.89247C30.3855 4.89247 30.346 4.89247 30.3055 4.89247H27.8898V8.02987H30.3045Z" fill="white"/>
</svg>
