<svg width="98" height="23" viewBox="0 0 98 23" fill="none" xmlns="http://www.w3.org/2000/svg">
<path d="M85.5529 15.5779V17.6989H83.7737C81.8752 17.6392 80.8608 16.614 80.8608 14.6883V9.84439H79.6187V7.98383H80.8608V5.90088H83.4862V7.96214H85.4932V9.81727H83.4862V14.428C83.4862 15.0518 83.611 15.5508 84.5711 15.5508L85.5529 15.5779Z" fill="white"/>
<path d="M69.1553 12.8606V12.7196C69.1268 12.0957 69.2219 11.4723 69.4349 10.8852C69.6479 10.2981 69.9748 9.75886 70.3964 9.29829C70.8181 8.83773 71.3265 8.4649 71.8928 8.20124C72.4591 7.93754 73.0717 7.78819 73.6955 7.76172C73.8203 7.76172 73.9505 7.76172 74.0752 7.76172C76.5542 7.76172 78.7293 9.2046 78.7293 12.6436V13.3759H71.8404C71.9109 14.9598 72.768 15.8549 74.2108 15.8549C75.453 15.8549 76.0334 15.3124 76.2016 14.5205H78.6805C78.3768 16.5871 76.7277 17.7371 74.1186 17.7371C71.2546 17.7154 69.1553 15.9037 69.1553 12.8606ZM76.1473 11.7161C76.0551 10.2732 75.3283 9.57888 74.0644 9.57888C72.8005 9.57888 72.0737 10.36 71.8946 11.7161H76.1473Z" fill="white"/>
<path d="M58.4366 12.8606V12.7196C58.408 12.0966 58.5028 11.4741 58.7151 10.8877C58.9273 10.3013 59.2532 9.76244 59.6737 9.30198C60.0943 8.84156 60.6017 8.46851 61.1665 8.20424C61.7314 7.93996 62.3429 7.78956 62.9659 7.76172C63.0907 7.76172 63.2209 7.76172 63.3457 7.76172C65.8246 7.76172 68.0052 9.2046 68.0052 12.6436V13.3759H61.1217C61.1922 14.9598 62.0492 15.8549 63.4921 15.8549C64.7343 15.8549 65.3147 15.3124 65.4829 14.5205H67.9618C67.6526 16.5871 66.0036 17.7371 63.3945 17.7371C60.5358 17.7154 58.4366 15.9037 58.4366 12.8606ZM65.4286 11.7161C65.3364 10.2732 64.6095 9.57888 63.3457 9.57888C62.0818 9.57888 61.3766 10.3817 61.1759 11.7106L65.4286 11.7161Z" fill="white"/>
<path d="M43.395 7.9624H46.1723L47.8701 14.3957L49.7307 7.9624H51.9004L53.582 14.3957L55.372 7.9624H57.916L54.9001 17.5201H52.2964L50.6691 11.5208L48.9279 17.5201H46.2916L43.395 7.9624Z" fill="white"/>
<path d="M34.5693 14.5148H37.0483C37.1622 15.3772 37.5907 15.8709 38.7298 15.8709C39.7496 15.8709 40.2215 15.4857 40.2215 14.8294C40.2215 14.173 39.6791 13.8964 38.2904 13.7011C35.7464 13.316 34.7646 12.5837 34.7646 10.7177C34.7646 8.72698 36.5872 7.73975 38.5617 7.73975C40.6826 7.73975 42.2828 8.51 42.5106 10.7069H40.0642C40.0487 10.537 39.9995 10.372 39.9196 10.2212C39.84 10.0705 39.7311 9.93704 39.5995 9.82859C39.4679 9.72014 39.316 9.63889 39.1529 9.58945C38.9895 9.54002 38.8181 9.52342 38.6484 9.54063H38.5671C37.71 9.54063 37.211 9.94203 37.211 10.5279C37.211 11.1137 37.6721 11.3686 39.0715 11.5693C41.4474 11.9273 42.7764 12.5295 42.7764 14.5744C42.7764 16.6194 41.2738 17.7151 38.7569 17.7151C36.24 17.7151 34.6399 16.5814 34.5693 14.5148Z" fill="white"/>
<path d="M24.0352 7.96214H26.6605V9.47553C26.9565 8.92004 27.4056 8.46118 27.9547 8.15351C28.5037 7.8458 29.1296 7.7022 29.7579 7.73974C31.6184 7.73974 32.9691 8.87343 32.9691 11.4608V17.5415H30.3762V11.8406C30.3762 10.5441 29.8718 9.92575 28.7001 9.92575C28.4525 9.9042 28.203 9.93176 27.966 10.0069C27.7291 10.082 27.5093 10.2031 27.3193 10.3634C27.1292 10.5237 26.9728 10.7199 26.8588 10.9408C26.7448 11.1617 26.6756 11.403 26.6551 11.6507C26.6416 11.766 26.6416 11.8825 26.6551 11.9979V17.5198H24.0352V7.96214Z" fill="white"/>
<path d="M18.9691 5.55961C18.9596 5.29785 19.028 5.03915 19.1656 4.81627C19.3032 4.59338 19.5038 4.41634 19.7421 4.30755C19.9804 4.19876 20.2456 4.16311 20.5041 4.20513C20.7626 4.24714 21.0029 4.36492 21.1945 4.54357C21.386 4.72221 21.5203 4.95367 21.5802 5.20866C21.6402 5.46364 21.6231 5.73067 21.5312 5.97595C21.4393 6.22124 21.2767 6.43373 21.0639 6.58651C20.8512 6.73933 20.5979 6.82558 20.3361 6.83433H20.2873C20.1248 6.8446 19.9619 6.82272 19.8078 6.76989C19.6539 6.71709 19.5118 6.63435 19.3898 6.52652C19.2679 6.41868 19.1684 6.28781 19.0971 6.14142C19.0259 5.99504 18.9842 5.83604 18.9746 5.67352C18.97 5.63573 18.9682 5.59766 18.9691 5.55961ZM18.9691 7.9626H21.6216V17.5203H18.98L18.9691 7.9626Z" fill="white"/>
<path d="M8.97168 4.45801H17.3577V6.77421H11.9334V10.2295H16.2295V12.4589H11.928V17.5199H8.97168V4.45801Z" fill="white"/>
<path d="M3.91096 8.73239C3.91096 9.55146 3.91096 10.5495 2.78269 10.9564C3.93808 11.3524 3.91096 12.1931 3.91096 13.0719V16.3265C3.91096 16.9449 4.16048 17.3191 4.60528 17.4114C4.70302 17.4443 4.80598 17.4591 4.90904 17.4547H5.99391V19.6245H4.20387C2.2945 19.6245 1.24218 18.5396 1.24218 16.5272V12.6759C1.22863 12.4782 1.14145 12.2927 0.997846 12.1561C0.854242 12.0195 0.664646 11.9418 0.466494 11.9382H0V10.0342H0.466494C0.668599 10.0316 0.861919 9.9512 1.00635 9.80981C1.15077 9.66841 1.23523 9.47683 1.24218 9.27482V5.36929C1.24218 3.3894 2.2728 2.3208 4.20387 2.3208H6.01018V4.458H4.92531C4.82214 4.4583 4.71962 4.47477 4.62155 4.50682C4.17675 4.62073 3.92723 4.98958 3.92723 5.59169L3.91096 8.73239Z" fill="white"/>
<path fill-rule="evenodd" clip-rule="evenodd" d="M94.0223 8.10693H91.8526L91.8558 11.7286L88.2363 11.732V13.8929H91.858L91.8616 17.5091H94.0223V13.8929H97.6385V11.7232L94.0223 11.7266V8.10693Z" fill="white"/>
</svg>
